<svg  xmlns="http://www.w3.org/2000/svg" width="60" height="60" viewBox="-12 0 199 199"><g fill-rule="nonzero" fill="#ffffff"><path d="M108.3 92.6l-3.2-3.2-16.3 14.2c-.8-.3-1.7-.5-2.6-.5-4.4 0-8 3.7-8 8.2 0 4.5 3.6 8.2 8 8.2s8-3.7 8-8.2c0-.9-.1-1.7-.4-2.5l14.5-16.2z"></path><path d="M103.1 25.8V11.5h5.2V.8H65.7v10.7h5.2v14.4C30.6 33.6.3 69 .3 111.4c0 48.1 39 87 87 87 48.1 0 87-39 87-87 0-42.7-30.7-78.1-71.2-85.6zM89.7 156.1v-5h-5.1v5c-22.7-1.3-40.8-19.6-42-42.3h5v-5.1h-5C44 86.2 62 68.1 84.6 66.8v5h5.1v-5c22.8 1.2 41 19.4 42.3 42.1h-5v5.1h5c-1.3 22.7-19.6 40.9-42.3 42.1z"></path></g></svg>